<svg width="60" height="48" viewBox="0 0 60 48" fill="none" xmlns="http://www.w3.org/2000/svg">
<path d="M50.6417 40H44.6417V46H50.6417V40Z" stroke="white" stroke-width="2" stroke-miterlimit="10" stroke-linecap="round" stroke-linejoin="round"/>
<path d="M16.6417 40H10.6417V46H16.6417V40Z" stroke="white" stroke-width="2" stroke-miterlimit="10" stroke-linecap="round" stroke-linejoin="round"/>
<path d="M33.6417 2H27.6417V8H33.6417V2Z" stroke="white" stroke-width="2" stroke-miterlimit="10" stroke-linecap="round" stroke-linejoin="round"/>
<path d="M47.6417 8C49.2985 8 50.6417 6.65685 50.6417 5C50.6417 3.34315 49.2985 2 47.6417 2C45.9848 2 44.6417 3.34315 44.6417 5C44.6417 6.65685 45.9848 8 47.6417 8Z" stroke="white" stroke-width="2" stroke-miterlimit="10" stroke-linecap="round" stroke-linejoin="round"/>
<path d="M13.6417 8C15.2985 8 16.6417 6.65685 16.6417 5C16.6417 3.34315 15.2985 2 13.6417 2C11.9848 2 10.6417 3.34315 10.6417 5C10.6417 6.65685 11.9848 8 13.6417 8Z" stroke="white" stroke-width="2" stroke-miterlimit="10" stroke-linecap="round" stroke-linejoin="round"/>
<path d="M47.6417 8V14L43.6417 18" stroke="white" stroke-width="2" stroke-miterlimit="10" stroke-linecap="round" stroke-linejoin="round"/>
<path d="M13.6417 8V14L17.6417 18" stroke="white" stroke-width="2" stroke-miterlimit="10" stroke-linecap="round" stroke-linejoin="round"/>
<path d="M30.6417 8V11" stroke="white" stroke-width="2" stroke-miterlimit="10" stroke-linecap="round" stroke-linejoin="round"/>
<path d="M30.6417 46C32.2985 46 33.6417 44.6569 33.6417 43C33.6417 41.3431 32.2985 40 30.6417 40C28.9848 40 27.6417 41.3431 27.6417 43C27.6417 44.6569 28.9848 46 30.6417 46Z" stroke="white" stroke-width="2" stroke-miterlimit="10" stroke-linecap="round" stroke-linejoin="round"/>
<path d="M47.6417 40V34L43.6417 30" stroke="white" stroke-width="2" stroke-miterlimit="10" stroke-linecap="round" stroke-linejoin="round"/>
<path d="M13.6417 40V34L17.6417 30" stroke="white" stroke-width="2" stroke-miterlimit="10" stroke-linecap="round" stroke-linejoin="round"/>
<path d="M30.6417 40V37" stroke="white" stroke-width="2" stroke-miterlimit="10" stroke-linecap="round" stroke-linejoin="round"/>
<path d="M30.6417 29C33.4031 29 35.6417 26.7614 35.6417 24C35.6417 21.2386 33.4031 19 30.6417 19C27.8802 19 25.6417 21.2386 25.6417 24C25.6417 26.7614 27.8802 29 30.6417 29Z" stroke="white" stroke-width="2" stroke-miterlimit="10" stroke-linecap="round" stroke-linejoin="round"/>
<path d="M30.6417 19V16" stroke="white" stroke-width="2" stroke-miterlimit="10" stroke-linecap="round" stroke-linejoin="round"/>
<path d="M27.1057 20.464L24.9847 18.343" stroke="white" stroke-width="2" stroke-miterlimit="10" stroke-linecap="round" stroke-linejoin="round"/>
<path d="M25.6417 24H22.6417" stroke="white" stroke-width="2" stroke-miterlimit="10" stroke-linecap="round" stroke-linejoin="round"/>
<path d="M27.1057 27.536L24.9847 29.657" stroke="white" stroke-width="2" stroke-miterlimit="10" stroke-linecap="round" stroke-linejoin="round"/>
<path d="M30.6417 29V32" stroke="white" stroke-width="2" stroke-miterlimit="10" stroke-linecap="round" stroke-linejoin="round"/>
<path d="M34.1777 27.536L36.2987 29.657" stroke="white" stroke-width="2" stroke-miterlimit="10" stroke-linecap="round" stroke-linejoin="round"/>
<path d="M35.6417 24H38.6417" stroke="white" stroke-width="2" stroke-miterlimit="10" stroke-linecap="round" stroke-linejoin="round"/>
<path d="M34.1777 20.464L36.2987 18.343" stroke="white" stroke-width="2" stroke-miterlimit="10" stroke-linecap="round" stroke-linejoin="round"/>
</svg>
